<?xml version="1.0" encoding="utf-8"?>
<!-- Generator: Adobe Illustrator 20.0.0, SVG Export Plug-In . SVG Version: 6.00 Build 0)  -->
<svg version="1.1" id="Layer_1" xmlns="http://www.w3.org/2000/svg" xmlns:xlink="http://www.w3.org/1999/xlink" x="0px" y="0px"
	 viewBox="0 0 1150.4 348.7" style="enable-background:new 0 0 1150.4 348.7;" xml:space="preserve">
<style type="text/css">
	.st0{display:none;}
	.st1{display:inline;fill:none;stroke:#868686;stroke-width:0.4;stroke-miterlimit:10;stroke-dasharray:2;}
	.st2{display:inline;fill:none;stroke:#9C9B9B;stroke-width:0.25;stroke-miterlimit:10;stroke-dasharray:2;}
	.st3{display:inline;fill:none;stroke:#868686;stroke-width:0.2;stroke-miterlimit:10;stroke-dasharray:2;}
	.st4{display:inline;}
	.st5{fill:#6F6F6E;}
	.st6{fill:none;stroke:#6F6F6E;stroke-width:0.5;stroke-miterlimit:10;}
	.st7{display:inline;fill:#D9D9D9;}
	.st8{fill:#FFFFFF;}
</style>
<g id="Background">
	<rect id="black" width="1150.4" height="348.7"/>
</g>
<g id="Construction" class="st0">
	<line class="st1" x1="315" y1="315.3" x2="462.8" y2="33.1"/>
	<line class="st1" x1="543.2" y1="315.3" x2="691" y2="33.1"/>
	<line class="st1" x1="629.5" y1="315.3" x2="777.2" y2="33.4"/>
	<line class="st1" x1="866.9" y1="315.3" x2="1014.6" y2="33.1"/>
	<line class="st1" x1="200.9" y1="317.4" x2="349.8" y2="33.1"/>
	<line class="st1" x1="142.5" y1="317.4" x2="291.4" y2="33.1"/>
	<line class="st2" x1="157" y1="163.6" x2="1011.7" y2="163.6"/>
	<line class="st2" x1="157" y1="71.7" x2="1011.7" y2="71.7"/>
	<line class="st2" x1="157" y1="276" x2="1011.7" y2="276"/>
	<line class="st2" x1="157" y1="184.2" x2="1011.7" y2="184.2"/>
	<line class="st3" x1="444.4" y1="315.3" x2="377.1" y2="33.1"/>
	<line class="st3" x1="629.5" y1="315.3" x2="562.6" y2="34.9"/>
	<line class="st3" x1="844.5" y1="315.3" x2="777.2" y2="33.1"/>
</g>
<g id="Guidelines" class="st0">
	<line class="st2" x1="117" y1="163.6" x2="994.4" y2="163.6"/>
	<line class="st2" x1="117" y1="112.6" x2="183.6" y2="112.6"/>
	<line class="st2" x1="310.1" y1="71.7" x2="310.1" y2="339.4"/>
	<line class="st2" x1="335.6" y1="71.7" x2="335.6" y2="339.4"/>
	<g class="st4">
		<path class="st5" d="M89.7,138.4l3.7,5.7h-3.2l-2.2-3.4l-2.2,3.4h-3.2l3.7-5.7l-3.5-5.4H86l2,3.2l2.1-3.2h3.1L89.7,138.4z"/>
	</g>
	<g class="st4">
		<g>
			<line class="st6" x1="102.8" y1="113.9" x2="102.8" y2="162.6"/>
			<g>
				<circle class="st5" cx="102.8" cy="113.9" r="1.3"/>
			</g>
			<g>
				<circle class="st5" cx="102.8" cy="162.5" r="1.3"/>
			</g>
		</g>
	</g>
	<g class="st4">
		<path class="st5" d="M305.6,360.8c0-3.4,1.9-5.7,4.6-5.7s4.6,2.3,4.6,5.7s-1.9,5.7-4.6,5.7C307.5,366.5,305.6,364.2,305.6,360.8z
			 M308.4,360.8c0,1.7,0.5,3.2,1.8,3.2s1.8-1.5,1.8-3.2c0-1.7-0.5-3.2-1.8-3.2C308.9,357.7,308.4,359.1,308.4,360.8z"/>
		<path class="st5" d="M316.8,363.1c0.9,0,1.7,0.7,1.7,1.7c0,1-0.7,1.7-1.7,1.7c-0.9,0-1.7-0.7-1.7-1.7
			C315.1,363.8,315.9,363.1,316.8,363.1z"/>
		<path class="st5" d="M322,361.9h-2.3v-6.6h6.8v2.5H322v1.7c0.3-0.2,1-0.4,1.7-0.4c2.2,0,3.6,1.5,3.6,3.7c0,2.3-1.6,3.8-4,3.8
			c-2.5,0-4.1-1.5-4.2-3.7h2.8c0.1,0.8,0.6,1.3,1.4,1.3c0.8,0,1.3-0.6,1.3-1.4c0-0.8-0.5-1.4-1.3-1.4
			C322.8,361.3,322.4,361.6,322,361.9z"/>
		<path class="st5" d="M338.4,360.7l3.7,5.7h-3.2l-2.2-3.4l-2.2,3.4h-3.2l3.7-5.7l-3.5-5.4h3.2l2,3.1l2.1-3.1h3.1L338.4,360.7z"/>
	</g>
	<g class="st4">
		<g>
			<line class="st6" x1="311.3" y1="343.6" x2="335.1" y2="343.6"/>
			<g>
				<circle class="st5" cx="311.3" cy="343.6" r="1.3"/>
			</g>
			<g>
				<circle class="st5" cx="335" cy="343.6" r="1.3"/>
			</g>
		</g>
	</g>
	<g class="st4">
		<g>
			<line class="st6" x1="128" y1="21.8" x2="128" y2="70.6"/>
			<g>
				<circle class="st5" cx="128" cy="21.9" r="1.3"/>
			</g>
			<g>
				<circle class="st5" cx="128" cy="70.5" r="1.3"/>
			</g>
		</g>
	</g>
	<g class="st4">
		<path class="st5" d="M160,4l3.7,5.7h-3.2l-2.2-3.4l-2.2,3.4H153l3.7-5.7l-3.5-5.4h3.2l2,3.2l2.1-3.2h3.1L160,4z"/>
	</g>
	<g class="st4">
		<path class="st5" d="M116.5,45.1l3.7,5.7H117l-2.2-3.4l-2.2,3.4h-3.2l3.7-5.7l-3.5-5.4h3.2l2,3.2l2.1-3.2h3.1L116.5,45.1z"/>
	</g>
	<g class="st4">
		<g>
			<line class="st6" x1="182.5" y1="16.4" x2="133.8" y2="16.4"/>
			<g>
				<circle class="st5" cx="182.4" cy="16.4" r="1.3"/>
			</g>
			<g>
				<circle class="st5" cx="133.8" cy="16.4" r="1.3"/>
			</g>
		</g>
	</g>
	<rect x="106.8" y="112.7" class="st7" width="8.1" height="51"/>
	<rect x="183.6" y="20.7" class="st7" width="8.1" height="51"/>
	<rect x="986.3" y="20.7" class="st7" width="8.1" height="51"/>
	<rect x="183.6" y="276.1" class="st7" width="8.1" height="51"/>
	<rect x="986.3" y="276.1" class="st7" width="8.1" height="51"/>
	<rect x="132.6" y="71.7" class="st7" width="51" height="8.1"/>
	<rect x="132.6" y="267.9" class="st7" width="51" height="8.1"/>
	<rect x="994.4" y="71.7" class="st7" width="51" height="8.1"/>
	<rect x="994.4" y="267.9" class="st7" width="51" height="8.1"/>
	<rect x="183.6" y="71.7" class="st2" width="810.8" height="204.3"/>
	<rect x="132.6" y="20.7" class="st2" width="912.8" height="306.4"/>
</g>
<g>
	<path class="st8" d="M238.7,99.2c6.5-0.1,12.9,0.6,19.2,1.9c5.3,1,10.4,3.1,14.9,6.1c4.1,2.8,7.5,6.7,9.6,11.3
		c2.2,4.6,3.4,10.4,3.4,17.3c0,7.4-1.7,13.6-5,18.6c-3.4,4.9-8.4,9-15,12.2c9.1,2.6,15.8,7.2,20.3,13.7c4.5,6.5,6.7,14.5,6.7,23.7
		c0,7.5-1.4,13.9-4.3,19.3c-2.8,5.3-6.8,9.9-11.7,13.4c-5.1,3.5-10.8,6.1-16.8,7.7c-6.3,1.7-12.8,2.5-19.3,2.5h-71.5V99.2H238.7z
		 M234.5,158.8c5.8,0,10.5-1.4,14.3-4.1s5.5-7.3,5.5-13.4c0.1-2.9-0.5-5.8-1.8-8.5c-1.2-2.1-2.9-3.9-5-5.1c-2.2-1.3-4.6-2.2-7.2-2.6
		c-2.8-0.5-5.6-0.8-8.4-0.7h-30.3v34.5L234.5,158.8z M236.3,221.6c3.1,0,6.1-0.3,9.1-0.9c2.7-0.5,5.3-1.6,7.7-3.1
		c2.2-1.5,4.1-3.5,5.3-5.9c1.4-3,2.1-6.3,1.9-9.6c0-7.6-2.1-13-6.4-16.3c-4.2-3.3-9.9-4.8-16.9-4.8h-35.4v40.6L236.3,221.6z"/>
	<path class="st8" d="M339,221.1c4.4,4.3,10.7,6.5,19,6.5c5.5,0.1,10.8-1.4,15.3-4.5c4.2-3,6.8-6.2,7.8-9.5H407
		c-4.2,12.9-10.5,22-19.1,27.5c-8.6,5.5-18.9,8.3-30.9,8.3c-7.8,0.1-15.5-1.2-22.8-4c-6.5-2.5-12.4-6.5-17.2-11.5
		c-4.8-5.2-8.5-11.2-10.9-17.8c-2.6-7.3-3.9-15-3.8-22.8c-0.1-7.6,1.3-15.2,3.9-22.3c5-13.4,15.3-24.2,28.5-29.8
		c7.1-3,14.6-4.4,22.3-4.3c9,0,16.9,1.7,23.7,5.3c6.6,3.4,12.3,8.2,16.7,14.2c4.4,6.1,7.6,12.9,9.4,20.2c1.9,7.7,2.6,15.7,2,23.7
		h-77C331.7,208.8,334.6,216.8,339,221.1z M372.7,165c-3.5-3.9-9.4-6-16.6-6c-4-0.1-8,0.7-11.7,2.4c-2.9,1.4-5.4,3.4-7.4,5.9
		c-1.8,2.2-3.1,4.8-3.9,7.5c-0.7,2.3-1.1,4.6-1.3,7h47.7C378.7,174.4,376.2,168.9,372.7,165L372.7,165z"/>
	<path class="st8" d="M450.5,99.2v55.6h0.6c3.3-5.8,8.2-10.5,14.2-13.5c5.2-2.7,11-4.1,16.9-4.2c7.8,0,14.3,1,19.3,3.2
		c4.7,1.9,8.8,4.9,11.9,8.9c3,4.1,5,8.9,6,13.8c1.2,5.9,1.8,12,1.8,18v65.6h-29.4v-60.3c0-8.8-1.4-15.4-4.1-19.7s-7.6-6.5-14.6-6.5
		c-7.9,0-13.7,2.4-17.2,7.1c-3.6,4.7-5.4,12.6-5.4,23.4v56H421V99.2H450.5z"/>
	<path class="st8" d="M542.2,155.5c2.9-4.5,6.9-8.3,11.5-11c4.9-2.9,10.2-4.8,15.8-5.9c5.8-1.2,11.7-1.7,17.7-1.7
		c5.5,0,10.9,0.4,16.3,1.1c5.2,0.7,10.3,2.2,15,4.5c4.4,2.1,8.2,5.3,11.1,9.2c2.9,3.9,4.4,9.1,4.4,15.6V223c0,4.6,0.3,9.3,0.8,13.8
		c0.4,3.5,1.6,7,3.5,10l-29.9-0.1c-1-1.5-1.6-3.2-1.9-5c-0.3-1.7-0.6-3.5-0.7-5.3c-4.5,4.7-10.2,8.2-16.5,10.1
		c-6.3,1.9-12.8,2.9-19.4,2.9c-4.8,0-9.6-0.6-14.2-1.9c-4.2-1.2-8.1-3.1-11.5-5.8c-3.3-2.7-6-6.1-7.7-9.9c-2-4.5-2.9-9.4-2.8-14.3
		c0-6.1,1.1-11.1,3.2-15c1.9-3.8,4.8-7,8.2-9.4c3.5-2.4,7.4-4.2,11.6-5.3c4.3-1.1,8.6-2.1,13-2.8c4.4-0.7,8.7-1.2,13-1.7
		c3.9-0.3,7.7-1,11.4-1.9c2.8-0.6,5.5-1.9,7.8-3.6c1.9-1.6,2.8-3.9,2.7-6.9c0.1-2.6-0.4-5.2-1.6-7.6c-1-1.8-2.4-3.3-4.1-4.3
		c-1.8-1.1-3.8-1.8-5.9-2.1c-2.4-0.3-4.8-0.5-7.3-0.5c-5.7,0-10.3,1.3-13.5,3.8c-3.2,2.5-5.2,6.7-5.8,12.5h-29.6
		C537.4,165.8,539.1,160.1,542.2,155.5z M599.9,197.1c-1.9,0.6-3.9,1.1-5.9,1.5c-2.2,0.4-4.4,0.7-6.7,1c-2.3,0.3-4.7,0.6-7,1
		c-2.2,0.4-4.4,1-6.5,1.7c-2,0.6-3.9,1.6-5.5,2.8c-1.6,1.2-2.9,2.7-3.8,4.4c-1,2.1-1.5,4.5-1.4,6.8c-0.1,2.3,0.4,4.6,1.4,6.6
		c0.9,1.7,2.2,3.2,3.9,4.2c1.8,1.1,3.7,1.8,5.8,2.2c2.2,0.4,4.5,0.6,6.8,0.6c5.8,0,10.2-1,13.4-2.9c2.9-1.7,5.3-4,7-6.9
		c1.5-2.5,2.4-5.3,2.7-8.2c0.3-2.2,0.5-4.4,0.6-6.6v-11C603.2,195.6,601.7,196.6,599.9,197.1L599.9,197.1z"/>
	<path class="st8" d="M678,139.9v14.9h0.7c3.3-5.9,8.4-10.5,14.5-13.5c5.7-2.7,11.9-4.2,18.2-4.2c7.9,0,14.3,1,19.3,3.2
		c4.7,1.8,8.8,4.9,11.9,8.9c3.1,4.1,5.2,8.8,6.1,13.8c1.3,5.9,1.9,12,1.8,18v65.6H721v-60.3c0-8.8-1.4-15.4-4.1-19.7
		c-2.8-4.3-7.6-7.1-14.7-7.1c-8,0-13.8,3-17.4,7.7s-5.4,12.6-5.4,23.4v56h-29.1V139.9H678z"/>
	<path class="st8" d="M815.7,159.1c-4.7,0-8.6,1-11.8,3.2c-3.2,2.1-5.9,5-7.8,8.3c-2,3.5-3.5,7.2-4.3,11.2c-0.8,4-1.2,8-1.2,12.1
		c0,4,0.4,7.9,1.2,11.8c0.8,3.8,2.1,7.5,4,10.9c1.9,3.2,4.5,5.9,7.6,8c3.5,2.2,7.5,3.2,11.6,3.1c7.1,0,12.5-2,16.3-5.9
		c3.8-3.9,6.1-9.2,7.1-15.8h28.3c-1.9,14.2-7.5,25-16.5,32.4c-9.1,7.4-20.8,11.2-35,11.2c-7.5,0.1-15-1.3-22-4
		c-6.4-2.5-12.3-6.4-17.1-11.3c-4.8-5-8.5-10.8-11-17.2c-2.7-7-4-14.5-3.9-22.1c-0.1-7.8,1.2-15.6,3.6-23
		c2.2-6.8,5.9-13.1,10.7-18.4c4.8-5.3,10.7-9.4,17.2-12.1c7.4-3,15.2-4.5,23.2-4.4c6.2,0,12.3,0.8,18.3,2.5c5.6,1.5,11,4.1,15.7,7.5
		c4.6,3.4,8.4,7.6,11.3,12.6c3,5.5,4.7,11.6,4.9,17.8h-28.7C835.5,165.1,828.3,159,815.7,159.1z"/>
	<rect x="325.7" y="109.1" class="st8" width="59.8" height="14.6"/>
	<path class="st8" d="M910.9,221.1c4.4,4.3,11,6.5,19.4,6.5c5.4,0.2,10.8-1.4,15.3-4.5c4.3-3,6.9-6.2,7.8-9.5h25.8
		c-4.1,12.9-10.5,22-19.1,27.5c-8.6,5.5-18.9,8.3-31,8.3c-7.8,0.1-15.5-1.2-22.8-4c-6.5-2.5-12.4-6.5-17.2-11.5
		c-4.8-5.1-8.5-11.2-10.9-17.8c-2.6-7.3-3.9-15-3.8-22.8c0-7.6,1.3-15.2,4-22.3c2.5-6.7,6.3-12.7,11.2-17.9
		c4.9-5.1,10.8-9.1,17.2-11.9c7-2.9,14.6-4.4,22.2-4.3c9,0,17,1.7,23.7,5.3c6.6,3.3,12.3,8.2,16.7,14.2c4.4,6.1,7.6,13,9.4,20.3
		c1.9,7.8,2.6,15.8,2.1,23.8h-77.4C903.7,208.8,906.5,216.8,910.9,221.1z M945,165c-3.5-3.9-9.5-6-16.6-6c-4-0.1-8.1,0.7-11.7,2.4
		c-2.9,1.4-5.5,3.5-7.6,5.9c-1.8,2.2-3.2,4.8-4,7.5c-0.7,2.3-1.1,4.6-1.3,7h48.1C951,174.4,948.5,168.9,945,165L945,165z"/>
</g>
</svg>
