<svg id="Layer_1" data-name="Layer 1" xmlns="http://www.w3.org/2000/svg" viewBox="0 0 1150.38 348.71"><defs><style>.cls-1{fill:#fff;}</style></defs><title>Artboard 1</title><g id="Background"><rect id="black" y="-383.65" width="1152" height="1152"/></g><path class="cls-1" d="M216.8,94.33a96.45,96.45,0,0,1,20.49,2,44.58,44.58,0,0,1,15.87,6.48,30.38,30.38,0,0,1,10.25,12c2.39,4.94,3.6,11.12,3.6,18.43q0,11.86-5.34,19.8c-3.61,5.27-8.93,9.6-16,13,9.67,2.78,16.84,7.67,21.58,14.62s7.1,15.4,7.1,25.22q0,11.95-4.58,20.6a40.09,40.09,0,0,1-12.43,14.23,54.72,54.72,0,0,1-17.88,8.15,79.75,79.75,0,0,1-20.54,2.65h-76.2V94.33Zm-4.51,63.47c6.13,0,11.2-1.45,15.22-4.41s5.91-7.73,5.91-14.28a18.63,18.63,0,0,0-1.93-9,14.27,14.27,0,0,0-5.34-5.46,21.55,21.55,0,0,0-7.62-2.76,46.27,46.27,0,0,0-8.9-.78H177.32v36.73Zm1.93,66.88a44,44,0,0,0,9.67-1,22.92,22.92,0,0,0,8.15-3.32,16.63,16.63,0,0,0,5.63-6.27,21.73,21.73,0,0,0,2.07-10.19c0-8.1-2.28-13.87-6.77-17.34s-10.56-5.13-18-5.13H177.32v43.27Z"/><path class="cls-1" d="M323.6,224.12c4.67,4.56,11.44,6.87,20.2,6.87a27.85,27.85,0,0,0,16.32-4.78c4.52-3.2,7.29-6.56,8.35-10.08H396c-4.43,13.69-11.13,23.47-20.3,29.34s-20.08,8.86-32.92,8.86a65.44,65.44,0,0,1-24.27-4.26,51.55,51.55,0,0,1-18.36-12.23,56,56,0,0,1-11.6-19,69.5,69.5,0,0,1-4.09-24.25,66.78,66.78,0,0,1,4.2-23.8A55.15,55.15,0,0,1,319,139.09a59.1,59.1,0,0,1,23.73-4.59c9.6,0,18.05,1.86,25.28,5.63a50.31,50.31,0,0,1,17.74,15.08,61.67,61.67,0,0,1,10,21.55A80.54,80.54,0,0,1,397.9,202H315.85C315.85,211.07,318.88,219.59,323.6,224.12Zm35.88-59.77c-3.71-4.11-10-6.34-17.68-6.34a26.85,26.85,0,0,0-12.43,2.55,25.13,25.13,0,0,0-7.92,6.27,22.4,22.4,0,0,0-4.19,8,35.59,35.59,0,0,0-1.43,7.47h50.83C365.9,174.42,363.22,168.53,359.47,164.35Z"/><path class="cls-1" d="M442.32,94.33v59.24H443a35.76,35.76,0,0,1,15.15-14.35,41,41,0,0,1,18-4.47c8.35,0,15.18,1.06,20.53,3.36a30.77,30.77,0,0,1,12.66,9.46,37.34,37.34,0,0,1,6.4,14.75,92,92,0,0,1,1.88,19.2v69.9H486.32V187.2c0-9.38-1.46-16.43-4.38-21s-8.1-6.92-15.56-6.92c-8.45,0-14.55,2.56-18.36,7.61s-5.72,13.38-5.72,24.95v59.61H410.93V94.33Z"/><path class="cls-1" d="M540,154.32a36.81,36.81,0,0,1,12.26-11.73,52.65,52.65,0,0,1,16.83-6.27,92.59,92.59,0,0,1,18.81-1.81,128.23,128.23,0,0,1,17.4,1.22,52.79,52.79,0,0,1,16,4.75,31.2,31.2,0,0,1,11.84,9.84c3.09,4.13,4.66,9.67,4.66,16.63V226.2a125.7,125.7,0,0,0,.86,14.75,25.54,25.54,0,0,0,3.74,10.63l-31.89-.09a15.52,15.52,0,0,1-2.07-5.34,45.87,45.87,0,0,1-.76-5.6,40.41,40.41,0,0,1-17.61,10.77,70.83,70.83,0,0,1-20.65,3.06,56.06,56.06,0,0,1-15.15-2A35.27,35.27,0,0,1,542,246.23a29,29,0,0,1-8.22-10.58,36.11,36.11,0,0,1-3-15.22q0-9.71,3.46-16a27.63,27.63,0,0,1,8.77-10,38.47,38.47,0,0,1,12.32-5.63,132.08,132.08,0,0,1,13.86-2.93c4.71-.72,9.29-1.31,13.87-1.76a84.34,84.34,0,0,0,12.18-2,21.33,21.33,0,0,0,8.36-3.87c2-1.68,3-4.13,2.9-7.39a17,17,0,0,0-1.67-8.05,12.25,12.25,0,0,0-4.34-4.6,17.55,17.55,0,0,0-6.31-2.23,54.4,54.4,0,0,0-7.73-.54c-6.11,0-11,1.36-14.38,4s-5.55,7.11-6.18,13.29H534.41C534.92,165.26,536.74,159.16,540,154.32Zm61.5,44.26a58.31,58.31,0,0,1-6.31,1.65q-3.44.66-7.17,1.06c-2.48.28-5,.63-7.47,1.06a56.79,56.79,0,0,0-6.9,1.78,19.71,19.71,0,0,0-5.89,3,14.43,14.43,0,0,0-4.08,4.73,15.61,15.61,0,0,0-1.54,7.28,15.12,15.12,0,0,0,1.54,7.06,11.65,11.65,0,0,0,4.15,4.5A17.46,17.46,0,0,0,574,233a36.5,36.5,0,0,0,7.23.64c6.15,0,10.88-1.06,14.26-3.07a20.37,20.37,0,0,0,7.47-7.37,22.73,22.73,0,0,0,2.9-8.7,53.54,53.54,0,0,0,.6-7.07V195.7a13.59,13.59,0,0,1-4.93,2.9Z"/><path class="cls-1" d="M684.7,137.7v15.86h.71a35.29,35.29,0,0,1,15.39-14.34,44.68,44.68,0,0,1,19.38-4.47c8.39,0,15.26,1.06,20.58,3.36a30,30,0,0,1,12.66,9.46,36.1,36.1,0,0,1,6.52,14.75,89.68,89.68,0,0,1,1.93,19.2v69.9H730.46V187.2c0-9.38-1.47-16.43-4.41-21s-8.1-7.57-15.62-7.57c-8.53,0-14.69,3.2-18.5,8.24s-5.78,13.38-5.78,24.94v59.61h-31V137.7Z"/><path class="cls-1" d="M831.36,158.06c-5,0-9.17,1.06-12.52,3.4a27.18,27.18,0,0,0-8.31,8.82,38.57,38.57,0,0,0-4.53,11.9,66.58,66.58,0,0,0-1.33,12.91A63.88,63.88,0,0,0,806,207.66a40.39,40.39,0,0,0,4.26,11.6,25.4,25.4,0,0,0,8.06,8.47A21.81,21.81,0,0,0,830.65,231c7.52,0,13.28-2.14,17.32-6.26s6.5-9.8,7.55-16.85h30.17q-3.11,22.64-17.6,34.56c-9.67,7.9-22.11,11.9-37.23,11.9a62.43,62.43,0,0,1-23.47-4.26,52.41,52.41,0,0,1-18.22-12,55.75,55.75,0,0,1-11.73-18.36,64.29,64.29,0,0,1-4.17-23.51,76.09,76.09,0,0,1,3.87-24.54,54.23,54.23,0,0,1,11.39-19.6,51.8,51.8,0,0,1,18.36-12.91,62.1,62.1,0,0,1,24.71-4.69,74,74,0,0,1,19.5,2.63,51.33,51.33,0,0,1,16.7,8,43.16,43.16,0,0,1,12,13.38,43.73,43.73,0,0,1,5.27,19h-30.6Q851.43,158,831.36,158.06Z"/><rect class="cls-1" x="309.46" y="104.87" width="63.68" height="15.51"/><path class="cls-1" d="M932.73,224.12c4.7,4.56,11.73,6.87,20.61,6.87a27.65,27.65,0,0,0,16.26-4.74c4.53-3.2,7.35-6.56,8.36-10.08h27.52q-6.59,20.54-20.3,29.34t-33,8.85a65.14,65.14,0,0,1-24.27-4.26,51.33,51.33,0,0,1-18.36-12.23,55.09,55.09,0,0,1-11.6-19,69.5,69.5,0,0,1-4-24.29,66.69,66.69,0,0,1,4.26-23.8,56.06,56.06,0,0,1,11.95-19.06,56.77,56.77,0,0,1,18.36-12.68,59.4,59.4,0,0,1,23.69-4.59c9.6,0,18.08,1.86,25.23,5.63a49.89,49.89,0,0,1,17.75,15.08,61.37,61.37,0,0,1,10,21.59,81.58,81.58,0,0,1,2.22,25.31H925C925,211.07,928,219.59,932.73,224.12ZM969,164.35c-3.77-4.11-10.1-6.34-17.69-6.34a27.32,27.32,0,0,0-12.49,2.55,25.8,25.8,0,0,0-8.14,6.3,23.61,23.61,0,0,0-4.26,8,39,39,0,0,0-1.4,7.47h51.22c-.78-7.92-3.43-13.8-7.16-18Z"/></svg>