<?xml version="1.0" encoding="utf-8"?>
<!-- Generator: Adobe Illustrator 17.0.0, SVG Export Plug-In . SVG Version: 6.00 Build 0)  -->
<!DOCTYPE svg PUBLIC "-//W3C//DTD SVG 1.1//EN" "http://www.w3.org/Graphics/SVG/1.1/DTD/svg11.dtd">
<svg version="1.1" xmlns="http://www.w3.org/2000/svg" xmlns:xlink="http://www.w3.org/1999/xlink" x="0px" y="0px"
	 width="1150.375px" height="348.715px" viewBox="0 0 1150.375 348.715" enable-background="new 0 0 1150.375 348.715"
	 xml:space="preserve">
<g id="Background">
	<rect id="black" y="-383.649" width="1152" height="1152"/>
</g>
<g id="Artwork">
	<g id="Color_01">
		<polygon fill="#05CC47" points="310.088,108.884 310.088,71.735 310.077,71.735 272.939,71.735 269.232,75.474 251.703,108.879 
			246.191,112.598 183.629,112.598 183.629,163.613 218.023,163.613 221.086,167.319 183.629,238.895 183.629,276.044 
			183.641,276.044 220.777,276.044 224.485,272.306 242.015,238.899 247.526,235.182 310.088,235.182 310.088,184.166 
			275.694,184.166 272.634,180.436 		"/>
		<g>
			<path fill="#F2F2F2" d="M383.697,184.172l-48.076,91.872h28.529l6.976-13.369l32.213-0.002l3.188,13.371h28.526l-21.987-91.872
				H383.697z M382.669,240.597l10.554-20.145l4.87,20.145H382.669z"/>
			<path fill="#F2F2F2" d="M518.109,217.454c0-21.097-14.269-33.282-34.329-33.282h-43.533v91.881h27.483v-26.798h6.687l5.459-0.016
				l13.306,26.813h28.531l-16.967-32.42C513.067,238.332,518.109,229.347,518.109,217.454z M479.919,227.121H467.73v-18.575h12.188
				c7.427,0,10.248,3.716,10.248,9.361C490.166,223.408,487.346,227.121,479.919,227.121z"/>
			<polygon fill="#F2F2F2" points="522.174,184.172 522.174,208.527 548.142,208.527 548.142,276.053 563.79,276.053 
				575.604,253.451 575.604,208.527 599.157,208.527 611.892,184.172 			"/>
		</g>
		<g>
			<rect x="676.141" y="71.735" fill="#F2F2F2" width="27.457" height="91.868"/>
			<path fill="#F2F2F2" d="M442.595,71.781l-12.338,23.555h7.577c13.525,0,22.089,8.645,22.089,22.322
				c0,13.518-8.564,22.166-22.089,22.166h-8.562V97.217l-26.561,50.707v15.665h36.954c29.778,0,47.282-17.955,47.282-45.933
				C486.946,90.605,470.585,72.93,442.595,71.781z"/>
			<polygon fill="#F2F2F2" points="494.208,163.604 564.333,163.604 564.333,139.252 521.664,139.252 521.664,129.324 
				560.894,129.324 560.894,106.014 521.664,106.014 521.664,96.089 564.333,96.089 564.333,71.735 494.208,71.735 			"/>
			<polygon fill="#F2F2F2" points="613.153,127.329 599.844,71.735 571.344,71.735 593.344,163.601 622.662,163.601 670.782,71.735 
				642.25,71.735 			"/>
			<polygon fill="#F2F2F2" points="904.701,71.729 904.701,96.085 930.669,96.085 930.669,163.61 946.317,163.61 958.132,141.008 
				958.132,96.085 981.685,96.085 994.419,71.729 			"/>
			<path fill="#F2F2F2" d="M757.059,71.735l-48.089,91.865h28.482l7.001-13.385l32.182-0.001l3.195,13.386l28.489,0.003
				L786.33,71.735H757.059z M755.99,128.162l10.537-20.126l4.867,20.126H755.99z"/>
			<polygon fill="#F2F2F2" points="871.364,115.253 840.612,71.735 813.533,71.735 813.533,163.604 840.982,163.604 
				840.982,116.947 875.027,163.604 898.815,163.604 898.815,71.735 871.364,71.735 			"/>
		</g>
	</g>
</g>
<g id="Construction" display="none">
	
		<line display="inline" fill="none" stroke="#868686" stroke-width="0.4" stroke-miterlimit="10" stroke-dasharray="2" x1="315.035" y1="315.259" x2="462.816" y2="33.133"/>
	
		<line display="inline" fill="none" stroke="#868686" stroke-width="0.4" stroke-miterlimit="10" stroke-dasharray="2" x1="543.241" y1="315.259" x2="691.022" y2="33.133"/>
	
		<line display="inline" fill="none" stroke="#868686" stroke-width="0.4" stroke-miterlimit="10" stroke-dasharray="2" x1="629.512" y1="315.258" x2="777.225" y2="33.389"/>
	
		<line display="inline" fill="none" stroke="#868686" stroke-width="0.4" stroke-miterlimit="10" stroke-dasharray="2" x1="866.866" y1="315.259" x2="1014.648" y2="33.133"/>
	
		<line display="inline" fill="none" stroke="#868686" stroke-width="0.4" stroke-miterlimit="10" stroke-dasharray="2" x1="200.88" y1="317.351" x2="349.757" y2="33.133"/>
	
		<line display="inline" fill="none" stroke="#868686" stroke-width="0.4" stroke-miterlimit="10" stroke-dasharray="2" x1="142.503" y1="317.351" x2="291.38" y2="33.133"/>
	
		<line display="inline" fill="none" stroke="#9C9B9B" stroke-width="0.25" stroke-miterlimit="10" stroke-dasharray="2" x1="157.017" y1="163.601" x2="1011.667" y2="163.601"/>
	
		<line display="inline" fill="none" stroke="#9C9B9B" stroke-width="0.25" stroke-miterlimit="10" stroke-dasharray="2" x1="157.017" y1="71.735" x2="1011.667" y2="71.735"/>
	
		<line display="inline" fill="none" stroke="#9C9B9B" stroke-width="0.25" stroke-miterlimit="10" stroke-dasharray="2" x1="157.017" y1="276.044" x2="1011.667" y2="276.044"/>
	
		<line display="inline" fill="none" stroke="#9C9B9B" stroke-width="0.25" stroke-miterlimit="10" stroke-dasharray="2" x1="157.017" y1="184.163" x2="1011.667" y2="184.163"/>
	
		<line display="inline" fill="none" stroke="#868686" stroke-width="0.2" stroke-miterlimit="10" stroke-dasharray="2" x1="444.408" y1="315.258" x2="377.085" y2="33.133"/>
	
		<line display="inline" fill="none" stroke="#868686" stroke-width="0.2" stroke-miterlimit="10" stroke-dasharray="2" x1="629.512" y1="315.259" x2="562.608" y2="34.893"/>
	
		<line display="inline" fill="none" stroke="#868686" stroke-width="0.2" stroke-miterlimit="10" stroke-dasharray="2" x1="844.486" y1="315.259" x2="777.163" y2="33.133"/>
</g>
<g id="Guidelines" display="none">
	
		<line display="inline" fill="none" stroke="#9C9B9B" stroke-width="0.25" stroke-miterlimit="10" stroke-dasharray="2" x1="117.017" y1="163.601" x2="994.42" y2="163.601"/>
	
		<line display="inline" fill="none" stroke="#9C9B9B" stroke-width="0.25" stroke-miterlimit="10" stroke-dasharray="2" x1="117.017" y1="112.601" x2="183.629" y2="112.601"/>
	
		<line display="inline" fill="none" stroke="#9C9B9B" stroke-width="0.25" stroke-miterlimit="10" stroke-dasharray="2" x1="310.088" y1="71.729" x2="310.088" y2="339.351"/>
	
		<line display="inline" fill="none" stroke="#9C9B9B" stroke-width="0.25" stroke-miterlimit="10" stroke-dasharray="2" x1="335.594" y1="71.729" x2="335.594" y2="339.351"/>
	<g display="inline">
		<path fill="#6F6F6E" d="M89.673,138.447l3.727,5.654h-3.223l-2.196-3.403l-2.197,3.403h-3.151l3.727-5.654l-3.547-5.401h3.223
			l1.999,3.151l2.053-3.151h3.133L89.673,138.447z"/>
	</g>
	<g display="inline">
		<g>
			
				<line fill="none" stroke="#6F6F6E" stroke-width="0.5" stroke-miterlimit="10" x1="102.752" y1="113.851" x2="102.752" y2="162.589"/>
			<g>
				<circle fill="#6F6F6E" cx="102.752" cy="113.917" r="1.316"/>
			</g>
			<g>
				<circle fill="#6F6F6E" cx="102.752" cy="162.523" r="1.316"/>
			</g>
		</g>
	</g>
	<g display="inline">
		<path fill="#6F6F6E" d="M305.607,360.823c0-3.367,1.854-5.708,4.573-5.708c2.719,0,4.591,2.341,4.591,5.708
			c0,3.367-1.873,5.707-4.591,5.707C307.461,366.53,305.607,364.19,305.607,360.823z M308.398,360.823
			c0,1.71,0.504,3.168,1.782,3.168c1.278,0,1.783-1.458,1.783-3.168c0-1.711-0.504-3.17-1.783-3.17
			C308.902,357.653,308.398,359.112,308.398,360.823z"/>
		<path fill="#6F6F6E" d="M316.786,363.109c0.937,0,1.675,0.721,1.675,1.675c0,0.954-0.738,1.692-1.675,1.692
			c-0.918,0-1.656-0.738-1.656-1.692C315.129,363.83,315.868,363.109,316.786,363.109z"/>
		<path fill="#6F6F6E" d="M322.042,361.903h-2.322v-6.607h6.806v2.467h-4.483v1.656c0.342-0.198,0.973-0.397,1.675-0.397
			c2.232,0,3.619,1.512,3.619,3.691c0,2.286-1.584,3.816-3.979,3.816c-2.503,0-4.051-1.477-4.213-3.727h2.809
			c0.09,0.773,0.576,1.297,1.422,1.297c0.756,0,1.278-0.559,1.278-1.387c0-0.793-0.486-1.387-1.332-1.387
			C322.78,361.327,322.366,361.579,322.042,361.903z"/>
		<path fill="#6F6F6E" d="M338.423,360.696l3.727,5.654h-3.223l-2.197-3.402l-2.196,3.402h-3.151l3.727-5.654l-3.547-5.4h3.223
			l1.999,3.15l2.053-3.15h3.133L338.423,360.696z"/>
	</g>
	<g display="inline">
		<g>
			
				<line fill="none" stroke="#6F6F6E" stroke-width="0.5" stroke-miterlimit="10" x1="311.251" y1="343.601" x2="335.084" y2="343.601"/>
			<g>
				<circle fill="#6F6F6E" cx="311.317" cy="343.601" r="1.316"/>
			</g>
			<g>
				<circle fill="#6F6F6E" cx="335.018" cy="343.601" r="1.316"/>
			</g>
		</g>
	</g>
	<g display="inline">
		<g>
			<line fill="none" stroke="#6F6F6E" stroke-width="0.5" stroke-miterlimit="10" x1="128" y1="21.85" x2="128" y2="70.588"/>
			<g>
				<circle fill="#6F6F6E" cx="128" cy="21.916" r="1.316"/>
			</g>
			<g>
				<circle fill="#6F6F6E" cx="128" cy="70.523" r="1.316"/>
			</g>
		</g>
	</g>
	<g display="inline">
		<path fill="#6F6F6E" d="M160.007,3.983l3.727,5.654h-3.223l-2.196-3.403l-2.197,3.403h-3.151l3.727-5.654l-3.547-5.401h3.223
			l1.999,3.151l2.053-3.151h3.133L160.007,3.983z"/>
	</g>
	<g display="inline">
		<path fill="#6F6F6E" d="M116.507,45.15l3.727,5.654h-3.223l-2.196-3.403l-2.197,3.403h-3.151l3.727-5.654l-3.547-5.401h3.223
			l1.999,3.151l2.053-3.151h3.133L116.507,45.15z"/>
	</g>
	<g display="inline">
		<g>
			
				<line fill="none" stroke="#6F6F6E" stroke-width="0.5" stroke-miterlimit="10" x1="182.489" y1="16.351" x2="133.751" y2="16.351"/>
			<g>
				<circle fill="#6F6F6E" cx="182.423" cy="16.351" r="1.316"/>
			</g>
			<g>
				<circle fill="#6F6F6E" cx="133.816" cy="16.351" r="1.316"/>
			</g>
		</g>
	</g>
	<rect x="106.75" y="112.71" display="inline" fill="#D9D9D9" width="8.124" height="51.02"/>
	<rect x="183.629" y="20.709" display="inline" fill="#D9D9D9" width="8.124" height="51.02"/>
	<rect x="986.295" y="20.709" display="inline" fill="#D9D9D9" width="8.124" height="51.02"/>
	<rect x="183.629" y="276.053" display="inline" fill="#D9D9D9" width="8.124" height="51.021"/>
	<rect x="986.295" y="276.053" display="inline" fill="#D9D9D9" width="8.124" height="51.021"/>
	<rect x="132.61" y="71.735" display="inline" fill="#D9D9D9" width="51.019" height="8.124"/>
	<rect x="132.61" y="267.914" display="inline" fill="#D9D9D9" width="51.019" height="8.124"/>
	<rect x="994.42" y="71.735" display="inline" fill="#D9D9D9" width="51.02" height="8.124"/>
	<rect x="994.42" y="267.914" display="inline" fill="#D9D9D9" width="51.02" height="8.124"/>
	
		<rect x="183.629" y="71.729" display="inline" fill="none" stroke="#9C9B9B" stroke-width="0.25" stroke-miterlimit="10" stroke-dasharray="2" width="810.789" height="204.324"/>
	
		<rect x="132.61" y="20.709" display="inline" fill="none" stroke="#9C9B9B" stroke-width="0.25" stroke-miterlimit="10" stroke-dasharray="2" width="912.83" height="306.363"/>
</g>
</svg>
