<?xml version="1.0" encoding="utf-8"?>
<!-- Generator: Adobe Illustrator 17.0.0, SVG Export Plug-In . SVG Version: 6.00 Build 0)  -->
<!DOCTYPE svg PUBLIC "-//W3C//DTD SVG 1.1//EN" "http://www.w3.org/Graphics/SVG/1.1/DTD/svg11.dtd">
<svg version="1.1" id="Layer_1" xmlns="http://www.w3.org/2000/svg" xmlns:xlink="http://www.w3.org/1999/xlink" x="0px" y="0px"
	 width="720.5px" height="279.501px" viewBox="0 0 720.5 279.501" enable-background="new 0 0 720.5 279.501" xml:space="preserve">
<g id="Construction" display="none">
	
		<line display="inline" fill="none" stroke="#868686" stroke-width="0.4" stroke-miterlimit="10" stroke-dasharray="2" x1="315.035" y1="315.259" x2="462.816" y2="33.133"/>
	
		<line display="inline" fill="none" stroke="#868686" stroke-width="0.4" stroke-miterlimit="10" stroke-dasharray="2" x1="543.241" y1="315.259" x2="691.022" y2="33.133"/>
	
		<line display="inline" fill="none" stroke="#868686" stroke-width="0.4" stroke-miterlimit="10" stroke-dasharray="2" x1="629.512" y1="315.258" x2="777.225" y2="33.389"/>
	
		<line display="inline" fill="none" stroke="#868686" stroke-width="0.4" stroke-miterlimit="10" stroke-dasharray="2" x1="866.866" y1="315.259" x2="1014.648" y2="33.133"/>
	
		<line display="inline" fill="none" stroke="#868686" stroke-width="0.4" stroke-miterlimit="10" stroke-dasharray="2" x1="200.88" y1="317.351" x2="349.757" y2="33.133"/>
	
		<line display="inline" fill="none" stroke="#868686" stroke-width="0.4" stroke-miterlimit="10" stroke-dasharray="2" x1="142.503" y1="317.351" x2="291.38" y2="33.133"/>
	
		<line display="inline" fill="none" stroke="#9C9B9B" stroke-width="0.25" stroke-miterlimit="10" stroke-dasharray="2" x1="157.017" y1="163.601" x2="1011.667" y2="163.601"/>
	
		<line display="inline" fill="none" stroke="#9C9B9B" stroke-width="0.25" stroke-miterlimit="10" stroke-dasharray="2" x1="157.017" y1="71.735" x2="1011.667" y2="71.735"/>
	
		<line display="inline" fill="none" stroke="#9C9B9B" stroke-width="0.25" stroke-miterlimit="10" stroke-dasharray="2" x1="157.017" y1="276.044" x2="1011.667" y2="276.044"/>
	
		<line display="inline" fill="none" stroke="#9C9B9B" stroke-width="0.25" stroke-miterlimit="10" stroke-dasharray="2" x1="157.017" y1="184.163" x2="1011.667" y2="184.163"/>
	
		<line display="inline" fill="none" stroke="#868686" stroke-width="0.2" stroke-miterlimit="10" stroke-dasharray="2" x1="444.408" y1="315.258" x2="377.085" y2="33.133"/>
	
		<line display="inline" fill="none" stroke="#868686" stroke-width="0.2" stroke-miterlimit="10" stroke-dasharray="2" x1="629.512" y1="315.259" x2="562.608" y2="34.893"/>
	
		<line display="inline" fill="none" stroke="#868686" stroke-width="0.2" stroke-miterlimit="10" stroke-dasharray="2" x1="844.486" y1="315.259" x2="777.163" y2="33.133"/>
</g>
<g id="Guidelines" display="none">
	
		<line display="inline" fill="none" stroke="#9C9B9B" stroke-width="0.25" stroke-miterlimit="10" stroke-dasharray="2" x1="117.017" y1="163.601" x2="994.42" y2="163.601"/>
	
		<line display="inline" fill="none" stroke="#9C9B9B" stroke-width="0.25" stroke-miterlimit="10" stroke-dasharray="2" x1="117.017" y1="112.601" x2="183.629" y2="112.601"/>
	
		<line display="inline" fill="none" stroke="#9C9B9B" stroke-width="0.25" stroke-miterlimit="10" stroke-dasharray="2" x1="310.088" y1="71.729" x2="310.088" y2="339.351"/>
	
		<line display="inline" fill="none" stroke="#9C9B9B" stroke-width="0.25" stroke-miterlimit="10" stroke-dasharray="2" x1="335.594" y1="71.729" x2="335.594" y2="339.351"/>
	<g display="inline">
		<path fill="#6F6F6E" d="M89.673,138.447l3.727,5.654h-3.223l-2.196-3.403l-2.197,3.403h-3.151l3.727-5.654l-3.547-5.401h3.223
			l1.999,3.151l2.053-3.151h3.133L89.673,138.447z"/>
	</g>
	<g display="inline">
		<g>
			
				<line fill="none" stroke="#6F6F6E" stroke-width="0.5" stroke-miterlimit="10" x1="102.752" y1="113.851" x2="102.752" y2="162.589"/>
			<g>
				<circle fill="#6F6F6E" cx="102.752" cy="113.917" r="1.316"/>
			</g>
			<g>
				<circle fill="#6F6F6E" cx="102.752" cy="162.523" r="1.316"/>
			</g>
		</g>
	</g>
	<g display="inline">
		<path fill="#6F6F6E" d="M305.607,360.823c0-3.367,1.854-5.708,4.573-5.708s4.591,2.341,4.591,5.708s-1.873,5.707-4.591,5.707
			C307.461,366.53,305.607,364.19,305.607,360.823z M308.398,360.823c0,1.71,0.504,3.168,1.782,3.168s1.783-1.458,1.783-3.168
			c0-1.711-0.504-3.17-1.783-3.17C308.902,357.653,308.398,359.112,308.398,360.823z"/>
		<path fill="#6F6F6E" d="M316.786,363.109c0.937,0,1.675,0.721,1.675,1.675s-0.738,1.692-1.675,1.692
			c-0.918,0-1.656-0.738-1.656-1.692C315.129,363.83,315.868,363.109,316.786,363.109z"/>
		<path fill="#6F6F6E" d="M322.042,361.903h-2.322v-6.607h6.806v2.467h-4.483v1.656c0.342-0.198,0.973-0.397,1.675-0.397
			c2.232,0,3.619,1.512,3.619,3.691c0,2.286-1.584,3.816-3.979,3.816c-2.503,0-4.051-1.477-4.213-3.727h2.809
			c0.09,0.773,0.576,1.297,1.422,1.297c0.756,0,1.278-0.559,1.278-1.387c0-0.793-0.486-1.387-1.332-1.387
			C322.78,361.327,322.366,361.579,322.042,361.903z"/>
		<path fill="#6F6F6E" d="M338.423,360.696l3.727,5.654h-3.223l-2.197-3.402l-2.196,3.402h-3.151l3.727-5.654l-3.547-5.4h3.223
			l1.999,3.15l2.053-3.15h3.133L338.423,360.696z"/>
	</g>
	<g display="inline">
		<g>
			
				<line fill="none" stroke="#6F6F6E" stroke-width="0.5" stroke-miterlimit="10" x1="311.251" y1="343.601" x2="335.084" y2="343.601"/>
			<g>
				<circle fill="#6F6F6E" cx="311.317" cy="343.601" r="1.316"/>
			</g>
			<g>
				<circle fill="#6F6F6E" cx="335.018" cy="343.601" r="1.316"/>
			</g>
		</g>
	</g>
	<g display="inline">
		<g>
			<line fill="none" stroke="#6F6F6E" stroke-width="0.5" stroke-miterlimit="10" x1="128" y1="21.85" x2="128" y2="70.588"/>
			<g>
				<circle fill="#6F6F6E" cx="128" cy="21.916" r="1.316"/>
			</g>
			<g>
				<circle fill="#6F6F6E" cx="128" cy="70.523" r="1.316"/>
			</g>
		</g>
	</g>
	<g display="inline">
		<path fill="#6F6F6E" d="M160.007,3.983l3.727,5.654h-3.223l-2.196-3.403l-2.197,3.403h-3.151l3.727-5.654l-3.547-5.401h3.223
			l1.999,3.151l2.053-3.151h3.133L160.007,3.983z"/>
	</g>
	<g display="inline">
		<path fill="#6F6F6E" d="M116.507,45.15l3.727,5.654h-3.223l-2.196-3.403l-2.197,3.403h-3.151l3.727-5.654l-3.547-5.401h3.223
			l1.999,3.151l2.053-3.151h3.133L116.507,45.15z"/>
	</g>
	<g display="inline">
		<g>
			
				<line fill="none" stroke="#6F6F6E" stroke-width="0.5" stroke-miterlimit="10" x1="182.489" y1="16.351" x2="133.751" y2="16.351"/>
			<g>
				<circle fill="#6F6F6E" cx="182.423" cy="16.351" r="1.316"/>
			</g>
			<g>
				<circle fill="#6F6F6E" cx="133.816" cy="16.351" r="1.316"/>
			</g>
		</g>
	</g>
	<rect x="106.75" y="112.71" display="inline" fill="#D9D9D9" width="8.124" height="51.02"/>
	<rect x="183.629" y="20.709" display="inline" fill="#D9D9D9" width="8.124" height="51.02"/>
	<rect x="986.295" y="20.709" display="inline" fill="#D9D9D9" width="8.124" height="51.02"/>
	<rect x="183.629" y="276.053" display="inline" fill="#D9D9D9" width="8.124" height="51.021"/>
	<rect x="986.295" y="276.053" display="inline" fill="#D9D9D9" width="8.124" height="51.021"/>
	<rect x="132.61" y="71.735" display="inline" fill="#D9D9D9" width="51.019" height="8.124"/>
	<rect x="132.61" y="267.914" display="inline" fill="#D9D9D9" width="51.019" height="8.124"/>
	<rect x="994.42" y="71.735" display="inline" fill="#D9D9D9" width="51.02" height="8.124"/>
	<rect x="994.42" y="267.914" display="inline" fill="#D9D9D9" width="51.02" height="8.124"/>
	
		<rect x="183.629" y="71.729" display="inline" fill="none" stroke="#9C9B9B" stroke-width="0.25" stroke-miterlimit="10" stroke-dasharray="2" width="810.789" height="204.324"/>
	
		<rect x="132.61" y="20.709" display="inline" fill="none" stroke="#9C9B9B" stroke-width="0.25" stroke-miterlimit="10" stroke-dasharray="2" width="912.83" height="306.363"/>
</g>
<text transform="matrix(1 0 0 1 -7.6475 107.4977)"><tspan x="0" y="0" font-family="'Montserrat-Black'" font-size="153.3287">MILADIN</tspan><tspan x="0" y="172" font-family="'Montserrat-Black'" font-size="153.3287">POPOVIĆ</tspan></text>
</svg>
