<?xml version="1.0" encoding="utf-8"?>
<!-- Generator: Adobe Illustrator 20.0.0, SVG Export Plug-In . SVG Version: 6.00 Build 0)  -->
<svg version="1.1" id="Layer_1" xmlns="http://www.w3.org/2000/svg" xmlns:xlink="http://www.w3.org/1999/xlink" x="0px" y="0px"
	 viewBox="0 0 1000 1000" style="enable-background:new 0 0 1000 1000;" xml:space="preserve">
<style type="text/css">
	.st0{display:none;}
	.st1{display:inline;fill:none;stroke:#868686;stroke-width:0.4;stroke-miterlimit:10;stroke-dasharray:2;}
	.st2{display:inline;fill:none;stroke:#9C9B9B;stroke-width:0.25;stroke-miterlimit:10;stroke-dasharray:2;}
	.st3{display:inline;fill:none;stroke:#868686;stroke-width:0.2;stroke-miterlimit:10;stroke-dasharray:2;}
	.st4{display:inline;}
	.st5{fill:#6F6F6E;}
	.st6{fill:none;stroke:#6F6F6E;stroke-width:0.5;stroke-miterlimit:10;}
	.st7{display:inline;fill:#D9D9D9;}
	.st8{fill:#FFFFFF;}
</style>
<path d="M938.5,1000h-877c-34,0-61.5-27.5-61.5-61.5v-877C0,27.5,27.5,0,61.5,0h877c34,0,61.5,27.5,61.5,61.5v877
	C1000,972.5,972.5,1000,938.5,1000z"/>
<g id="Construction" class="st0">
	<line class="st1" x1="332.6" y1="640.9" x2="480.4" y2="358.8"/>
	<line class="st1" x1="560.8" y1="640.9" x2="708.6" y2="358.8"/>
	<line class="st1" x1="647.1" y1="640.9" x2="794.8" y2="359"/>
	<line class="st1" x1="884.4" y1="640.9" x2="1032.2" y2="358.8"/>
	<line class="st1" x1="218.4" y1="643" x2="367.3" y2="358.8"/>
	<line class="st1" x1="160.1" y1="643" x2="308.9" y2="358.8"/>
	<line class="st2" x1="174.6" y1="489.2" x2="1029.2" y2="489.2"/>
	<line class="st2" x1="174.6" y1="397.4" x2="1029.2" y2="397.4"/>
	<line class="st2" x1="174.6" y1="601.7" x2="1029.2" y2="601.7"/>
	<line class="st2" x1="174.6" y1="509.8" x2="1029.2" y2="509.8"/>
	<line class="st3" x1="462" y1="640.9" x2="394.6" y2="358.8"/>
	<line class="st3" x1="647.1" y1="640.9" x2="580.2" y2="360.5"/>
	<line class="st3" x1="862" y1="640.9" x2="794.7" y2="358.8"/>
</g>
<g id="Guidelines" class="st0">
	<line class="st2" x1="134.6" y1="489.2" x2="1012" y2="489.2"/>
	<line class="st2" x1="134.6" y1="438.2" x2="201.2" y2="438.2"/>
	<line class="st2" x1="327.6" y1="397.4" x2="327.6" y2="665"/>
	<line class="st2" x1="353.1" y1="397.4" x2="353.1" y2="665"/>
	<g class="st4">
		<path class="st5" d="M107.2,464.1l3.7,5.7h-3.2l-2.2-3.4l-2.2,3.4h-3.2l3.7-5.7l-3.5-5.4h3.2l2,3.2l2.1-3.2h3.1L107.2,464.1z"/>
	</g>
	<g class="st4">
		<g>
			<line class="st6" x1="120.3" y1="439.5" x2="120.3" y2="488.2"/>
			<g>
				<circle class="st5" cx="120.3" cy="439.6" r="1.3"/>
			</g>
			<g>
				<circle class="st5" cx="120.3" cy="488.2" r="1.3"/>
			</g>
		</g>
	</g>
	<g class="st4">
		<path class="st5" d="M323.2,686.5c0-3.4,1.9-5.7,4.6-5.7s4.6,2.3,4.6,5.7s-1.9,5.7-4.6,5.7C325,692.2,323.2,689.8,323.2,686.5z
			 M326,686.5c0,1.7,0.5,3.2,1.8,3.2s1.8-1.5,1.8-3.2c0-1.7-0.5-3.2-1.8-3.2C326.5,683.3,326,684.8,326,686.5z"/>
		<path class="st5" d="M334.3,688.8c0.9,0,1.7,0.7,1.7,1.7s-0.7,1.7-1.7,1.7c-0.9,0-1.7-0.7-1.7-1.7
			C332.7,689.5,333.4,688.8,334.3,688.8z"/>
		<path class="st5" d="M339.6,687.5h-2.3v-6.6h6.8v2.5h-4.5v1.7c0.3-0.2,1-0.4,1.7-0.4c2.2,0,3.6,1.5,3.6,3.7c0,2.3-1.6,3.8-4,3.8
			c-2.5,0-4.1-1.5-4.2-3.7h2.8c0.1,0.8,0.6,1.3,1.4,1.3c0.8,0,1.3-0.6,1.3-1.4c0-0.8-0.5-1.4-1.3-1.4
			C340.3,687,339.9,687.2,339.6,687.5z"/>
		<path class="st5" d="M356,686.3l3.7,5.7h-3.2l-2.2-3.4l-2.2,3.4h-3.2l3.7-5.7l-3.5-5.4h3.2l2,3.2l2.1-3.2h3.1L356,686.3z"/>
	</g>
	<g class="st4">
		<g>
			<line class="st6" x1="328.8" y1="669.2" x2="352.6" y2="669.2"/>
			<g>
				<circle class="st5" cx="328.9" cy="669.2" r="1.3"/>
			</g>
			<g>
				<circle class="st5" cx="352.6" cy="669.2" r="1.3"/>
			</g>
		</g>
	</g>
	<g class="st4">
		<g>
			<line class="st6" x1="145.6" y1="347.5" x2="145.6" y2="396.2"/>
			<g>
				<circle class="st5" cx="145.6" cy="347.6" r="1.3"/>
			</g>
			<g>
				<circle class="st5" cx="145.6" cy="396.2" r="1.3"/>
			</g>
		</g>
	</g>
	<g class="st4">
		<path class="st5" d="M177.6,329.6l3.7,5.7h-3.2l-2.2-3.4l-2.2,3.4h-3.2l3.7-5.7l-3.5-5.4h3.2l2,3.2l2.1-3.2h3.1L177.6,329.6z"/>
	</g>
	<g class="st4">
		<path class="st5" d="M134.1,370.8l3.7,5.7h-3.2l-2.2-3.4l-2.2,3.4H127l3.7-5.7l-3.5-5.4h3.2l2,3.2l2.1-3.2h3.1L134.1,370.8z"/>
	</g>
	<g class="st4">
		<g>
			<line class="st6" x1="200" y1="342" x2="151.3" y2="342"/>
			<g>
				<circle class="st5" cx="200" cy="342" r="1.3"/>
			</g>
			<g>
				<circle class="st5" cx="151.4" cy="342" r="1.3"/>
			</g>
		</g>
	</g>
	<rect x="124.3" y="438.4" class="st7" width="8.1" height="51"/>
	<rect x="201.2" y="346.4" class="st7" width="8.1" height="51"/>
	<rect x="1003.8" y="346.4" class="st7" width="8.1" height="51"/>
	<rect x="201.2" y="601.7" class="st7" width="8.1" height="51"/>
	<rect x="1003.8" y="601.7" class="st7" width="8.1" height="51"/>
	<rect x="150.2" y="397.4" class="st7" width="51" height="8.1"/>
	<rect x="150.2" y="593.6" class="st7" width="51" height="8.1"/>
	<rect x="1012" y="397.4" class="st7" width="51" height="8.1"/>
	<rect x="1012" y="593.6" class="st7" width="51" height="8.1"/>
	<rect x="201.2" y="397.4" class="st2" width="810.8" height="204.3"/>
	<rect x="150.2" y="346.4" class="st2" width="912.8" height="306.4"/>
</g>
<g>
	<path class="st8" d="M632.8,451.6v171.3h-42.3V451.6c0-17.3-14-31.3-31.3-31.3c-17.3,0-31.3,14-31.3,31.3v171.3h-42.3V451.6
		c0-17.3-14-31.3-31.3-31.3c-17.3,0-31.3,14-31.3,31.3v171.3h-42.3V420.8h-20.2v-42.3h21.2c11.4,0,22.4,4.7,30.2,13.1
		c29.4-20.9,69.7-17.3,95,8.5c13.8-14.1,32.7-22,52.5-22C599.8,378,632.7,410.9,632.8,451.6z"/>
</g>
</svg>
