<?xml version="1.0" encoding="utf-8"?>
<!-- Generator: Adobe Illustrator 17.0.0, SVG Export Plug-In . SVG Version: 6.00 Build 0)  -->
<!DOCTYPE svg PUBLIC "-//W3C//DTD SVG 1.1//EN" "http://www.w3.org/Graphics/SVG/1.1/DTD/svg11.dtd">
<svg version="1.1" id="Layer_1" xmlns="http://www.w3.org/2000/svg" xmlns:xlink="http://www.w3.org/1999/xlink" x="0px" y="0px"
	 width="964.892px" height="348.715px" viewBox="0 0 964.892 348.715" enable-background="new 0 0 964.892 348.715"
	 xml:space="preserve">
<g id="Construction" display="none">
	
		<line display="inline" fill="none" stroke="#868686" stroke-width="0.4" stroke-miterlimit="10" stroke-dasharray="2" x1="315.035" y1="315.259" x2="462.816" y2="33.133"/>
	
		<line display="inline" fill="none" stroke="#868686" stroke-width="0.4" stroke-miterlimit="10" stroke-dasharray="2" x1="543.241" y1="315.259" x2="691.022" y2="33.133"/>
	
		<line display="inline" fill="none" stroke="#868686" stroke-width="0.4" stroke-miterlimit="10" stroke-dasharray="2" x1="629.512" y1="315.258" x2="777.225" y2="33.389"/>
	
		<line display="inline" fill="none" stroke="#868686" stroke-width="0.4" stroke-miterlimit="10" stroke-dasharray="2" x1="866.866" y1="315.259" x2="1014.648" y2="33.133"/>
	
		<line display="inline" fill="none" stroke="#868686" stroke-width="0.4" stroke-miterlimit="10" stroke-dasharray="2" x1="200.88" y1="317.351" x2="349.757" y2="33.133"/>
	
		<line display="inline" fill="none" stroke="#868686" stroke-width="0.4" stroke-miterlimit="10" stroke-dasharray="2" x1="142.503" y1="317.351" x2="291.38" y2="33.133"/>
	
		<line display="inline" fill="none" stroke="#9C9B9B" stroke-width="0.25" stroke-miterlimit="10" stroke-dasharray="2" x1="157.017" y1="163.601" x2="1011.667" y2="163.601"/>
	
		<line display="inline" fill="none" stroke="#9C9B9B" stroke-width="0.25" stroke-miterlimit="10" stroke-dasharray="2" x1="157.017" y1="71.735" x2="1011.667" y2="71.735"/>
	
		<line display="inline" fill="none" stroke="#9C9B9B" stroke-width="0.25" stroke-miterlimit="10" stroke-dasharray="2" x1="157.017" y1="276.044" x2="1011.667" y2="276.044"/>
	
		<line display="inline" fill="none" stroke="#9C9B9B" stroke-width="0.25" stroke-miterlimit="10" stroke-dasharray="2" x1="157.017" y1="184.163" x2="1011.667" y2="184.163"/>
	
		<line display="inline" fill="none" stroke="#868686" stroke-width="0.2" stroke-miterlimit="10" stroke-dasharray="2" x1="444.408" y1="315.258" x2="377.085" y2="33.133"/>
	
		<line display="inline" fill="none" stroke="#868686" stroke-width="0.2" stroke-miterlimit="10" stroke-dasharray="2" x1="629.512" y1="315.259" x2="562.608" y2="34.893"/>
	
		<line display="inline" fill="none" stroke="#868686" stroke-width="0.2" stroke-miterlimit="10" stroke-dasharray="2" x1="844.486" y1="315.259" x2="777.163" y2="33.133"/>
</g>
<g id="Guidelines" display="none">
	
		<line display="inline" fill="none" stroke="#9C9B9B" stroke-width="0.25" stroke-miterlimit="10" stroke-dasharray="2" x1="117.017" y1="163.601" x2="994.42" y2="163.601"/>
	
		<line display="inline" fill="none" stroke="#9C9B9B" stroke-width="0.25" stroke-miterlimit="10" stroke-dasharray="2" x1="117.017" y1="112.601" x2="183.629" y2="112.601"/>
	
		<line display="inline" fill="none" stroke="#9C9B9B" stroke-width="0.25" stroke-miterlimit="10" stroke-dasharray="2" x1="310.088" y1="71.729" x2="310.088" y2="339.351"/>
	
		<line display="inline" fill="none" stroke="#9C9B9B" stroke-width="0.25" stroke-miterlimit="10" stroke-dasharray="2" x1="335.594" y1="71.729" x2="335.594" y2="339.351"/>
	<g display="inline">
		<path fill="#6F6F6E" d="M89.673,138.447l3.727,5.654h-3.223l-2.196-3.403l-2.197,3.403h-3.151l3.727-5.654l-3.547-5.401h3.223
			l1.999,3.151l2.053-3.151h3.133L89.673,138.447z"/>
	</g>
	<g display="inline">
		<g>
			
				<line fill="none" stroke="#6F6F6E" stroke-width="0.5" stroke-miterlimit="10" x1="102.752" y1="113.851" x2="102.752" y2="162.589"/>
			<g>
				<circle fill="#6F6F6E" cx="102.752" cy="113.917" r="1.316"/>
			</g>
			<g>
				<circle fill="#6F6F6E" cx="102.752" cy="162.523" r="1.316"/>
			</g>
		</g>
	</g>
	<g display="inline">
		<path fill="#6F6F6E" d="M305.607,360.823c0-3.367,1.854-5.708,4.573-5.708s4.591,2.341,4.591,5.708s-1.873,5.707-4.591,5.707
			C307.461,366.53,305.607,364.19,305.607,360.823z M308.398,360.823c0,1.71,0.504,3.168,1.782,3.168s1.783-1.458,1.783-3.168
			c0-1.711-0.504-3.17-1.783-3.17C308.902,357.653,308.398,359.112,308.398,360.823z"/>
		<path fill="#6F6F6E" d="M316.786,363.109c0.937,0,1.675,0.721,1.675,1.675s-0.738,1.692-1.675,1.692
			c-0.918,0-1.656-0.738-1.656-1.692C315.129,363.83,315.868,363.109,316.786,363.109z"/>
		<path fill="#6F6F6E" d="M322.042,361.903h-2.322v-6.607h6.806v2.467h-4.483v1.656c0.342-0.198,0.973-0.397,1.675-0.397
			c2.232,0,3.619,1.512,3.619,3.691c0,2.286-1.584,3.816-3.979,3.816c-2.503,0-4.051-1.477-4.213-3.727h2.809
			c0.09,0.773,0.576,1.297,1.422,1.297c0.756,0,1.278-0.559,1.278-1.387c0-0.793-0.486-1.387-1.332-1.387
			C322.78,361.327,322.366,361.579,322.042,361.903z"/>
		<path fill="#6F6F6E" d="M338.423,360.696l3.727,5.654h-3.223l-2.197-3.402l-2.196,3.402h-3.151l3.727-5.654l-3.547-5.4h3.223
			l1.999,3.15l2.053-3.15h3.133L338.423,360.696z"/>
	</g>
	<g display="inline">
		<g>
			
				<line fill="none" stroke="#6F6F6E" stroke-width="0.5" stroke-miterlimit="10" x1="311.251" y1="343.601" x2="335.084" y2="343.601"/>
			<g>
				<circle fill="#6F6F6E" cx="311.317" cy="343.601" r="1.316"/>
			</g>
			<g>
				<circle fill="#6F6F6E" cx="335.018" cy="343.601" r="1.316"/>
			</g>
		</g>
	</g>
	<g display="inline">
		<g>
			<line fill="none" stroke="#6F6F6E" stroke-width="0.5" stroke-miterlimit="10" x1="128" y1="21.85" x2="128" y2="70.588"/>
			<g>
				<circle fill="#6F6F6E" cx="128" cy="21.916" r="1.316"/>
			</g>
			<g>
				<circle fill="#6F6F6E" cx="128" cy="70.523" r="1.316"/>
			</g>
		</g>
	</g>
	<g display="inline">
		<path fill="#6F6F6E" d="M160.007,3.983l3.727,5.654h-3.223l-2.196-3.403l-2.197,3.403h-3.151l3.727-5.654l-3.547-5.401h3.223
			l1.999,3.151l2.053-3.151h3.133L160.007,3.983z"/>
	</g>
	<g display="inline">
		<path fill="#6F6F6E" d="M116.507,45.15l3.727,5.654h-3.223l-2.196-3.403l-2.197,3.403h-3.151l3.727-5.654l-3.547-5.401h3.223
			l1.999,3.151l2.053-3.151h3.133L116.507,45.15z"/>
	</g>
	<g display="inline">
		<g>
			
				<line fill="none" stroke="#6F6F6E" stroke-width="0.5" stroke-miterlimit="10" x1="182.489" y1="16.351" x2="133.751" y2="16.351"/>
			<g>
				<circle fill="#6F6F6E" cx="182.423" cy="16.351" r="1.316"/>
			</g>
			<g>
				<circle fill="#6F6F6E" cx="133.816" cy="16.351" r="1.316"/>
			</g>
		</g>
	</g>
	<rect x="106.75" y="112.71" display="inline" fill="#D9D9D9" width="8.124" height="51.02"/>
	<rect x="183.629" y="20.709" display="inline" fill="#D9D9D9" width="8.124" height="51.02"/>
	<rect x="986.295" y="20.709" display="inline" fill="#D9D9D9" width="8.124" height="51.02"/>
	<rect x="183.629" y="276.053" display="inline" fill="#D9D9D9" width="8.124" height="51.021"/>
	<rect x="986.295" y="276.053" display="inline" fill="#D9D9D9" width="8.124" height="51.021"/>
	<rect x="132.61" y="71.735" display="inline" fill="#D9D9D9" width="51.019" height="8.124"/>
	<rect x="132.61" y="267.914" display="inline" fill="#D9D9D9" width="51.019" height="8.124"/>
	<rect x="994.42" y="71.735" display="inline" fill="#D9D9D9" width="51.02" height="8.124"/>
	<rect x="994.42" y="267.914" display="inline" fill="#D9D9D9" width="51.02" height="8.124"/>
	
		<rect x="183.629" y="71.729" display="inline" fill="none" stroke="#9C9B9B" stroke-width="0.25" stroke-miterlimit="10" stroke-dasharray="2" width="810.789" height="204.324"/>
	
		<rect x="132.61" y="20.709" display="inline" fill="none" stroke="#9C9B9B" stroke-width="0.25" stroke-miterlimit="10" stroke-dasharray="2" width="912.83" height="306.363"/>
</g>
<g enable-background="new    ">
	<path d="M50.512,0.156l31.363,75.024l31.362-75.024h50.222v143.695h-41.407V65.137l-24.598,64.775H66.297L41.698,65.137v78.715
		H0.291V0.156H50.512z"/>
	<path d="M231.52,0.156v143.695h-47.557V0.156H231.52z"/>
	<path d="M299.575,0.156v104.133h59.856v39.562H252.018V0.156H299.575z"/>
	<path d="M469.512,123.558h-53.911l-7.38,20.294h-48.786L420.111,0.156h48.787l58.421,143.695h-50.632L469.512,123.558z
		 M457.829,89.53l-14.76-42.022L427.9,89.53H457.829z"/>
	<path d="M677.784,71.901c0,43.662-31.363,71.95-79.945,71.95h-62.315V0.156h64.16C647.036,0.156,677.784,28.239,677.784,71.901z
		 M629.202,72.312c0-21.319-12.095-35.258-30.543-35.258H583.08v69.9h17.834C618.133,106.954,629.202,93.425,629.202,72.312z"/>
	<path d="M738.667,0.156v143.695H691.11V0.156H738.667z"/>
	<path d="M798.931,0.156l56.781,73.795V0.156h43.048v143.695h-39.768l-56.576-73.385v73.385h-43.252V0.156H798.931z"/>
</g>
<g enable-background="new    ">
	<path d="M126.562,253.753c0,34.848-21.523,54.937-58.831,54.937H47.847v37.308H0.291V202.302h67.44
		C105.039,202.302,126.562,220.955,126.562,253.753z M81.466,255.189c0-10.66-5.944-16.81-16.194-16.81H47.847v34.233h17.424
		C75.521,272.612,81.466,266.257,81.466,255.189z"/>
	<path d="M291.579,274.047c0,42.637-33.208,74-78.92,74s-78.92-31.158-78.92-74c0-42.638,33.208-73.181,78.92-73.181
		S291.579,231.614,291.579,274.047z M182.526,274.252c0,19.679,14.349,34.232,30.748,34.232c16.398,0,29.518-14.554,29.518-34.232
		s-13.119-33.823-29.518-33.823C196.671,240.429,182.526,254.573,182.526,274.252z"/>
	<path d="M431.177,253.753c0,34.848-21.523,54.937-58.831,54.937h-19.884v37.308h-47.557V202.302h67.44
		C409.654,202.302,431.177,220.955,431.177,253.753z M386.08,255.189c0-10.66-5.944-16.81-16.193-16.81h-17.424v34.233h17.424
		C380.135,272.612,386.08,266.257,386.08,255.189z"/>
	<path d="M596.194,274.047c0,42.637-33.208,74-78.92,74s-78.92-31.158-78.92-74c0-42.638,33.208-73.181,78.92-73.181
		S596.194,231.614,596.194,274.047z M487.141,274.252c0,19.679,14.349,34.232,30.747,34.232c16.399,0,29.519-14.554,29.519-34.232
		s-13.119-33.823-29.519-33.823C501.285,240.429,487.141,254.573,487.141,274.252z"/>
	<path d="M647.034,202.302l29.723,94.294l29.519-94.294h48.582l-54.937,143.695h-49.197l-54.526-143.695H647.034z"/>
	<path d="M811.641,202.302v143.695h-47.557V202.302H811.641z"/>
	<path d="M903.474,240.429c-17.219,0-29.723,13.734-29.723,32.798c0,19.269,12.504,33.208,29.723,33.208
		c10.25,0,23.164-6.354,32.594-16.398l27.468,29.312c-15.989,17.424-40.383,28.698-62.521,28.698
		c-44.072,0-76.051-31.363-76.051-74.205c0-42.228,32.798-72.976,77.896-72.976c21.934,0,45.917,10.25,60.676,26.238l-27.468,32.593
		C927.458,248.014,914.544,240.429,903.474,240.429z M942.012,166.839l-28.083,26.443h-32.798l21.934-38.742L942.012,166.839z"/>
</g>
</svg>
