<?xml version="1.0" encoding="utf-8"?>
<!-- Generator: Adobe Illustrator 20.0.0, SVG Export Plug-In . SVG Version: 6.00 Build 0)  -->
<svg version="1.1" id="Layer_1" xmlns="http://www.w3.org/2000/svg" xmlns:xlink="http://www.w3.org/1999/xlink" x="0px" y="0px"
	 viewBox="0 0 1150.4 348.7" style="enable-background:new 0 0 1150.4 348.7;" xml:space="preserve">
<style type="text/css">
	.st0{fill:#1A0A00;}
	.st1{display:none;}
	.st2{display:inline;fill:none;stroke:#868686;stroke-width:0.4;stroke-miterlimit:10;stroke-dasharray:2;}
	.st3{display:inline;fill:none;stroke:#9C9B9B;stroke-width:0.25;stroke-miterlimit:10;stroke-dasharray:2;}
	.st4{display:inline;fill:none;stroke:#868686;stroke-width:0.2;stroke-miterlimit:10;stroke-dasharray:2;}
	.st5{display:inline;}
	.st6{fill:#6F6F6E;}
	.st7{fill:none;stroke:#6F6F6E;stroke-width:0.5;stroke-miterlimit:10;}
	.st8{display:inline;fill:#D9D9D9;}
	.st9{fill:#FFFFFF;}
</style>
<g id="Background">
	<rect id="black" y="0" class="st0" width="1150.4" height="348.7"/>
</g>
<g id="Construction" class="st1">
	<line class="st2" x1="315" y1="315.3" x2="462.8" y2="33.1"/>
	<line class="st2" x1="543.2" y1="315.3" x2="691" y2="33.1"/>
	<line class="st2" x1="629.5" y1="315.3" x2="777.2" y2="33.4"/>
	<line class="st2" x1="866.9" y1="315.3" x2="1014.6" y2="33.1"/>
	<line class="st2" x1="200.9" y1="317.4" x2="349.8" y2="33.1"/>
	<line class="st2" x1="142.5" y1="317.4" x2="291.4" y2="33.1"/>
	<line class="st3" x1="157" y1="163.6" x2="1011.7" y2="163.6"/>
	<line class="st3" x1="157" y1="71.7" x2="1011.7" y2="71.7"/>
	<line class="st3" x1="157" y1="276" x2="1011.7" y2="276"/>
	<line class="st3" x1="157" y1="184.2" x2="1011.7" y2="184.2"/>
	<line class="st4" x1="444.4" y1="315.3" x2="377.1" y2="33.1"/>
	<line class="st4" x1="629.5" y1="315.3" x2="562.6" y2="34.9"/>
	<line class="st4" x1="844.5" y1="315.3" x2="777.2" y2="33.1"/>
</g>
<g id="Guidelines" class="st1">
	<line class="st3" x1="117" y1="163.6" x2="994.4" y2="163.6"/>
	<line class="st3" x1="117" y1="112.6" x2="183.6" y2="112.6"/>
	<line class="st3" x1="310.1" y1="71.7" x2="310.1" y2="339.4"/>
	<line class="st3" x1="335.6" y1="71.7" x2="335.6" y2="339.4"/>
	<g class="st5">
		<path class="st6" d="M89.7,138.4l3.7,5.7h-3.2l-2.2-3.4l-2.2,3.4h-3.2l3.7-5.7l-3.5-5.4H86l2,3.2l2.1-3.2h3.1L89.7,138.4z"/>
	</g>
	<g class="st5">
		<g>
			<line class="st7" x1="102.8" y1="113.9" x2="102.8" y2="162.6"/>
			<g>
				<circle class="st6" cx="102.8" cy="113.9" r="1.3"/>
			</g>
			<g>
				<circle class="st6" cx="102.8" cy="162.5" r="1.3"/>
			</g>
		</g>
	</g>
	<g class="st5">
		<path class="st6" d="M305.6,360.8c0-3.4,1.9-5.7,4.6-5.7s4.6,2.3,4.6,5.7s-1.9,5.7-4.6,5.7S305.6,364.2,305.6,360.8z M308.4,360.8
			c0,1.7,0.5,3.2,1.8,3.2s1.8-1.5,1.8-3.2s-0.5-3.2-1.8-3.2C308.9,357.7,308.4,359.1,308.4,360.8z"/>
		<path class="st6" d="M316.8,363.1c0.9,0,1.7,0.7,1.7,1.7s-0.7,1.7-1.7,1.7c-0.9,0-1.7-0.7-1.7-1.7
			C315.1,363.8,315.9,363.1,316.8,363.1z"/>
		<path class="st6" d="M322,361.9h-2.3v-6.6h6.8v2.5H322v1.7c0.3-0.2,1-0.4,1.7-0.4c2.2,0,3.6,1.5,3.6,3.7c0,2.3-1.6,3.8-4,3.8
			c-2.5,0-4.1-1.5-4.2-3.7h2.8c0.1,0.8,0.6,1.3,1.4,1.3s1.3-0.6,1.3-1.4s-0.5-1.4-1.3-1.4C322.8,361.3,322.4,361.6,322,361.9z"/>
		<path class="st6" d="M338.4,360.7l3.7,5.7h-3.2l-2.2-3.4l-2.2,3.4h-3.2l3.7-5.7l-3.5-5.4h3.2l2,3.1l2.1-3.1h3.1L338.4,360.7z"/>
	</g>
	<g class="st5">
		<g>
			<line class="st7" x1="311.3" y1="343.6" x2="335.1" y2="343.6"/>
			<g>
				<circle class="st6" cx="311.3" cy="343.6" r="1.3"/>
			</g>
			<g>
				<circle class="st6" cx="335" cy="343.6" r="1.3"/>
			</g>
		</g>
	</g>
	<g class="st5">
		<g>
			<line class="st7" x1="128" y1="21.8" x2="128" y2="70.6"/>
			<g>
				<circle class="st6" cx="128" cy="21.9" r="1.3"/>
			</g>
			<g>
				<circle class="st6" cx="128" cy="70.5" r="1.3"/>
			</g>
		</g>
	</g>
	<g class="st5">
		<path class="st6" d="M160,4l3.7,5.7h-3.2l-2.2-3.4l-2.2,3.4H153l3.7-5.7l-3.5-5.4h3.2l2,3.2l2.1-3.2h3.1L160,4z"/>
	</g>
	<g class="st5">
		<path class="st6" d="M116.5,45.1l3.7,5.7H117l-2.2-3.4l-2.2,3.4h-3.2l3.7-5.7l-3.5-5.4h3.2l2,3.2l2.1-3.2h3.1L116.5,45.1z"/>
	</g>
	<g class="st5">
		<g>
			<line class="st7" x1="182.5" y1="16.4" x2="133.8" y2="16.4"/>
			<g>
				<circle class="st6" cx="182.4" cy="16.4" r="1.3"/>
			</g>
			<g>
				<circle class="st6" cx="133.8" cy="16.4" r="1.3"/>
			</g>
		</g>
	</g>
	<rect x="106.8" y="112.7" class="st8" width="8.1" height="51"/>
	<rect x="183.6" y="20.7" class="st8" width="8.1" height="51"/>
	<rect x="986.3" y="20.7" class="st8" width="8.1" height="51"/>
	<rect x="183.6" y="276.1" class="st8" width="8.1" height="51"/>
	<rect x="986.3" y="276.1" class="st8" width="8.1" height="51"/>
	<rect x="132.6" y="71.7" class="st8" width="51" height="8.1"/>
	<rect x="132.6" y="267.9" class="st8" width="51" height="8.1"/>
	<rect x="994.4" y="71.7" class="st8" width="51" height="8.1"/>
	<rect x="994.4" y="267.9" class="st8" width="51" height="8.1"/>
	<rect x="183.6" y="71.7" class="st3" width="810.8" height="204.3"/>
	<rect x="132.6" y="20.7" class="st3" width="912.8" height="306.4"/>
</g>
<g>
	<path class="st9" d="M593,161h26.2c9.5,0,16.5-1.9,20.9-5.6c4.5-3.7,7.3-8.3,8.5-13.8s2.4-14.7,3.7-27.5c1.3-12,2.9-21.1,4.8-27.5
		c1.8-6.3,5.2-11.3,10.1-15.1c4.9-3.8,12.2-5.6,21.8-5.6c8,0,15,2.5,20.7,7.6c5.8,5,8.6,11.7,8.6,19.9c0,6.7-1.9,12.1-5.6,16.4
		c-3.7,4.2-8.7,6.3-14.8,6.3c-5.3,0-9.8-1.5-13.5-4.5s-5.6-6.6-5.6-10.7c0-3.8,0.8-8.1,2.3-12.8c0.8-2.8,1.2-6.4,1.2-10.9
		c0-1.7-1.9-2.5-5.8-2.5c-9.1,0-14.5,10.5-16.2,31.5c-1.3,14.4-2.5,24.8-3.5,31.1c-1,6.4-2.8,11.5-5.4,15.5
		c-2.6,3.9-6.5,6.9-11.9,8.9v3.5c12.9,2.8,23,6.2,30.4,10.2s13,9,16.8,15s6.4,13.3,7.8,21.8c1.5,8.5,2.7,20.6,3.7,36.2
		c0.7,15.1,3.9,22.7,9.6,22.7c8,0,14.4-3.2,19.2-9.6l4.8,4.4c-5.7,6.2-10.8,10.4-15.3,12.7c-4.6,2.2-10,3.3-16.2,3.3
		c-12.9,0-22.6-2.9-29-8.7c-6.4-5.8-10.6-13.3-12.5-22.4c-1.9-9.2-3.1-21.2-3.5-36.2c-1.4-31.5-13.4-47.2-36.1-47.2H593V272h24.6
		v6.4h-85V272h24.6V167.4h-26.1c-22.6,0-34.6,15.7-36,47.2c-0.6,15.2-1.8,27.3-3.6,36.3c-1.8,9-6,16.4-12.4,22.2
		c-6.4,5.8-16.1,8.7-29,8.7c-6.2,0-11.6-1.1-16.2-3.3c-4.6-2.2-9.7-6.4-15.3-12.7l4.8-4.4c5,6.4,11.4,9.6,19.2,9.6
		c3.9,0,6.4-2.1,7.5-6.3c1.1-4.2,1.8-9.7,2.1-16.3c0.9-20,2.8-35,5.5-44.9c2.7-9.9,8.1-17.9,16-23.9c8-6,20.3-10.8,37.1-14.4v-3.5
		c-5.2-2-9.2-4.9-11.8-8.9c-2.6-3.9-4.4-9.1-5.5-15.5c-1-6.4-2.2-16.8-3.5-31.1c-1.7-21-7.1-31.5-16.3-31.5c-3.8,0-5.7,0.8-5.7,2.5
		c0,4.5,0.4,8.1,1.2,10.9c1.5,5,2.3,9.2,2.3,12.8c0,4.2-1.9,7.7-5.6,10.7s-8.3,4.5-13.5,4.5c-6,0-10.9-2.1-14.7-6.4
		c-3.8-4.3-5.7-9.7-5.7-16.2c0-8.2,2.9-14.8,8.6-19.9c5.8-5,12.7-7.6,20.7-7.6c9.6,0,16.8,1.9,21.8,5.6c4.9,3.8,8.3,8.8,10.1,15.1
		c1.8,6.3,3.4,15.5,4.8,27.5c1.3,12.9,2.5,22.1,3.7,27.5c1.2,5.5,4,10.1,8.4,13.8c4.4,3.7,11.4,5.6,21,5.6h26.1V75.5h-24.6v-6.1h85
		v6.1H593V161z"/>
</g>
</svg>
